<?xml version="1.0" encoding="UTF-8"?>
<svg xmlns="http://www.w3.org/2000/svg" xmlns:xlink="http://www.w3.org/1999/xlink" width="230.000mm" height="400.000mm" viewBox="40.999863 -987.000000 230.000320 400.000000">
    <path transform="matrix(-0,1,1,0,80.999878,-787)" style="stroke:#ff0000;stroke-width:0.05mm;fill:none" d="M-200.000015,30.000002L200.000015,30.000002"/>
    <path transform="matrix(-0,1,1,0,210.999878,-787)" style="stroke:#ff0000;stroke-width:0.05mm;fill:none" d="M200.000015,-30.000002L-200.000015,-30.000002"/>
    <circle transform="matrix(-0,1,1,0,145.999878,-970.75)" style="stroke:#00e000;stroke-width:0.05mm;fill:none" r="5.5" cx="0" cy="0"/>
    <circle transform="matrix(-0,1,1,0,145.999878,-946.25)" style="stroke:#00e000;stroke-width:0.05mm;fill:none" r="5.5" cx="0" cy="0"/>
    <circle transform="matrix(-0,1,1,0,145.999878,-921.75)" style="stroke:#00e000;stroke-width:0.05mm;fill:none" r="5.5" cx="0" cy="0"/>
    <circle transform="matrix(-0,1,1,0,145.999878,-897.25)" style="stroke:#00e000;stroke-width:0.05mm;fill:none" r="5.5" cx="0" cy="0"/>
    <circle transform="matrix(-0,1,1,0,145.999878,-872.75)" style="stroke:#00e000;stroke-width:0.05mm;fill:none" r="5.5" cx="0" cy="0"/>
    <circle transform="matrix(-0,1,1,0,145.999878,-848.25)" style="stroke:#00e000;stroke-width:0.05mm;fill:none" r="5.5" cx="0" cy="0"/>
    <circle transform="matrix(-0,1,1,0,145.999878,-823.75)" style="stroke:#00e000;stroke-width:0.05mm;fill:none" r="5.5" cx="0" cy="0"/>
    <circle transform="matrix(-0,1,1,0,145.999878,-799.25)" style="stroke:#00e000;stroke-width:0.05mm;fill:none" r="5.5" cx="0" cy="0"/>
    <circle transform="matrix(-0,1,1,0,145.999878,-774.75)" style="stroke:#00e000;stroke-width:0.05mm;fill:none" r="5.5" cx="0" cy="0"/>
    <circle transform="matrix(-0,1,1,0,145.999878,-750.25)" style="stroke:#00e000;stroke-width:0.05mm;fill:none" r="5.5" cx="0" cy="0"/>
    <circle transform="matrix(-0,1,1,0,145.999878,-725.75)" style="stroke:#00e000;stroke-width:0.05mm;fill:none" r="5.5" cx="0" cy="0"/>
    <circle transform="matrix(-0,1,1,0,145.999878,-701.25)" style="stroke:#00e000;stroke-width:0.05mm;fill:none" r="5.5" cx="0" cy="0"/>
    <circle transform="matrix(-0,1,1,0,145.999878,-676.75)" style="stroke:#00e000;stroke-width:0.05mm;fill:none" r="5.5" cx="0" cy="0"/>
    <circle transform="matrix(-0,1,1,0,145.999878,-652.25)" style="stroke:#00e000;stroke-width:0.05mm;fill:none" r="5.5" cx="0" cy="0"/>
    <circle transform="matrix(-0,1,1,0,145.999847,-627.75)" style="stroke:#00e000;stroke-width:0.05mm;fill:none" r="5.5" cx="0" cy="0"/>
    <circle transform="matrix(-0,1,1,0,145.999847,-603.25)" style="stroke:#00e000;stroke-width:0.05mm;fill:none" r="5.5" cx="0" cy="0"/>
    <circle transform="matrix(-0,1,1,0,75.999878,-970.75)" style="stroke:#00e000;stroke-width:0.05mm;fill:none" r="5.5" cx="0" cy="0"/>
    <circle transform="matrix(-0,1,1,0,75.999878,-946.25)" style="stroke:#00e000;stroke-width:0.05mm;fill:none" r="5.5" cx="0" cy="0"/>
    <circle transform="matrix(-0,1,1,0,75.999878,-921.75)" style="stroke:#00e000;stroke-width:0.05mm;fill:none" r="5.5" cx="0" cy="0"/>
    <circle transform="matrix(-0,1,1,0,75.999878,-897.25)" style="stroke:#00e000;stroke-width:0.05mm;fill:none" r="5.5" cx="0" cy="0"/>
    <circle transform="matrix(-0,1,1,0,75.999878,-872.75)" style="stroke:#00e000;stroke-width:0.05mm;fill:none" r="5.5" cx="0" cy="0"/>
    <circle transform="matrix(-0,1,1,0,75.999878,-848.25)" style="stroke:#00e000;stroke-width:0.05mm;fill:none" r="5.5" cx="0" cy="0"/>
    <circle transform="matrix(-0,1,1,0,75.999878,-823.75)" style="stroke:#00e000;stroke-width:0.05mm;fill:none" r="5.5" cx="0" cy="0"/>
    <circle transform="matrix(-0,1,1,0,75.999863,-799.25)" style="stroke:#00e000;stroke-width:0.05mm;fill:none" r="5.5" cx="0" cy="0"/>
    <circle transform="matrix(-0,1,1,0,75.999863,-774.75)" style="stroke:#00e000;stroke-width:0.05mm;fill:none" r="5.5" cx="0" cy="0"/>
    <circle transform="matrix(-0,1,1,0,75.999863,-750.25)" style="stroke:#00e000;stroke-width:0.05mm;fill:none" r="5.5" cx="0" cy="0"/>
    <circle transform="matrix(-0,1,1,0,75.999863,-725.75)" style="stroke:#00e000;stroke-width:0.05mm;fill:none" r="5.5" cx="0" cy="0"/>
    <circle transform="matrix(-0,1,1,0,75.999863,-701.25)" style="stroke:#00e000;stroke-width:0.05mm;fill:none" r="5.5" cx="0" cy="0"/>
    <circle transform="matrix(-0,1,1,0,75.999863,-676.75)" style="stroke:#00e000;stroke-width:0.05mm;fill:none" r="5.5" cx="0" cy="0"/>
    <circle transform="matrix(-0,1,1,0,75.999863,-652.25)" style="stroke:#00e000;stroke-width:0.05mm;fill:none" r="5.5" cx="0" cy="0"/>
    <circle transform="matrix(-0,1,1,0,75.999863,-627.75)" style="stroke:#00e000;stroke-width:0.05mm;fill:none" r="5.5" cx="0" cy="0"/>
    <circle transform="matrix(-0,1,1,0,75.999863,-603.25)" style="stroke:#00e000;stroke-width:0.05mm;fill:none" r="5.5" cx="0" cy="0"/>
    <rect transform="matrix(-0,1,1,0,261.999878,-965)" style="stroke:#00e000;stroke-width:0.05mm;fill:none" x="-2.5" y="-2" width="5" height="4"/>
    <rect transform="matrix(-0,1,1,0,192.999878,-965)" style="stroke:#00e000;stroke-width:0.05mm;fill:none" x="-2.5" y="-2" width="5" height="4"/>
    <rect transform="matrix(-0,1,1,0,206.999878,-965)" style="stroke:#00e000;stroke-width:0.05mm;fill:none" x="-2.5" y="-2" width="5" height="4"/>
    <rect transform="matrix(-0,1,1,0,49.999878,-965)" style="stroke:#00e000;stroke-width:0.05mm;fill:none" x="-2.5" y="-2" width="5" height="4"/>
    <rect transform="matrix(-0,1,1,0,261.999878,-885)" style="stroke:#00e000;stroke-width:0.05mm;fill:none" x="-2.5" y="-2" width="5" height="4"/>
    <rect transform="matrix(-0,1,1,0,192.999878,-885)" style="stroke:#00e000;stroke-width:0.05mm;fill:none" x="-2.5" y="-2" width="5" height="4"/>
    <rect transform="matrix(-0,1,1,0,206.999878,-885)" style="stroke:#00e000;stroke-width:0.05mm;fill:none" x="-2.5" y="-2" width="5" height="4"/>
    <rect transform="matrix(-0,1,1,0,49.999878,-885)" style="stroke:#00e000;stroke-width:0.05mm;fill:none" x="-2.5" y="-2" width="5" height="4"/>
    <rect transform="matrix(-0,1,1,0,261.999878,-701)" style="stroke:#00e000;stroke-width:0.05mm;fill:none" x="-2.5" y="-2" width="5" height="4"/>
    <rect transform="matrix(-0,1,1,0,192.999878,-701)" style="stroke:#00e000;stroke-width:0.05mm;fill:none" x="-2.5" y="-2" width="5" height="4"/>
    <rect transform="matrix(-0,1,1,0,206.999878,-701)" style="stroke:#00e000;stroke-width:0.05mm;fill:none" x="-2.5" y="-2" width="5" height="4"/>
    <rect transform="matrix(-0,1,1,0,49.999863,-701)" style="stroke:#00e000;stroke-width:0.05mm;fill:none" x="-2.5" y="-2" width="5" height="4"/>
    <rect transform="matrix(-0,1,1,0,261.999847,-611)" style="stroke:#00e000;stroke-width:0.05mm;fill:none" x="-2.5" y="-2" width="5" height="4"/>
    <rect transform="matrix(-0,1,1,0,192.999847,-611)" style="stroke:#00e000;stroke-width:0.05mm;fill:none" x="-2.5" y="-2" width="5" height="4"/>
    <rect transform="matrix(-0,1,1,0,206.999847,-611)" style="stroke:#00e000;stroke-width:0.05mm;fill:none" x="-2.5" y="-2" width="5" height="4"/>
    <rect transform="matrix(-0,1,1,0,49.999863,-611)" style="stroke:#00e000;stroke-width:0.05mm;fill:none" x="-2.5" y="-2" width="5" height="4"/>
    <rect transform="matrix(-0,1,1,0,261.999878,-793)" style="stroke:#00e000;stroke-width:0.05mm;fill:none" x="-2.5" y="-2" width="5" height="4"/>
    <rect transform="matrix(-0,1,1,0,192.999878,-793)" style="stroke:#00e000;stroke-width:0.05mm;fill:none" x="-2.5" y="-2" width="5" height="4"/>
    <rect transform="matrix(-0,1,1,0,206.999878,-793)" style="stroke:#00e000;stroke-width:0.05mm;fill:none" x="-2.5" y="-2" width="5" height="4"/>
    <rect transform="matrix(-0,1,1,0,49.999863,-793)" style="stroke:#00e000;stroke-width:0.05mm;fill:none" x="-2.5" y="-2" width="5" height="4"/>
    <path transform="matrix(-0,1,1,0,130.999878,-787)" style="stroke:#00e000;stroke-width:0.05mm;fill:none" d="M200,-90.000008L-200,-90.000008"/>
    <path transform="matrix(-0,1,1.11111,0,140.999878,-787)" style="stroke:#00e000;stroke-width:0.05mm;fill:none" d="M200,90.000008L200,-90.000008"/>
    <path transform="matrix(-0,1,1.50172,0,255.98288,-787)" style="stroke:#00e000;stroke-width:0.05mm;fill:none" d="M200.000031,10L200.000031,-10"/>
    <path transform="matrix(-0,1,1,0,260.999878,-787)" style="stroke:#00e000;stroke-width:0.05mm;fill:none" d="M-200.000031,10L200.000031,10"/>
    <path transform="matrix(-0,1,1.50013,0,255.998871,-787)" style="stroke:#00e000;stroke-width:0.05mm;fill:none" d="M-200.000031,-10L-200.000031,10"/>
    <path transform="matrix(-0,1,1.11111,0,140.999878,-787)" style="stroke:#00e000;stroke-width:0.05mm;fill:none" d="M-200,-90.000008L-200,90.000008"/>
</svg>
